Coordinates
version=1
nRows=20
nColumns=38
inDegrees=no

Units are S.I. units (second, meters, Newtons, ...)
If the header above contains a line with 'inDegrees', this indicates whether rotational values are in degrees (yes) or radians (no).

endheader
time	pelvis_tilt	pelvis_list	pelvis_rotation	pelvis_tx	pelvis_ty	pelvis_tz	hip_flexion_r	hip_adduction_r	hip_rotation_r	knee_angle_r	ankle_angle_r	subtalar_angle_r	mtp_angle_r	hip_flexion_l	hip_adduction_l	hip_rotation_l	knee_angle_l	ankle_angle_l	subtalar_angle_l	mtp_angle_l	lumbar_extension	lumbar_bending	lumbar_rotation	arm_flex_r	arm_add_r	arm_rot_r	elbow_flex_r	pro_sup_r	wrist_flex_r	wrist_dev_r	arm_flex_l	arm_add_l	arm_rot_l	elbow_flex_l	pro_sup_l	wrist_flex_l	wrist_dev_l
15	2.94138	1.35285	-1.08749	0.641456	-0.390079	0.948949	0.0174744	-0.0571238	-0.135075	0.201049	-0.327216	0	0	-0.219725	-0.121334	-0.111788	0.316446	-0.159167	0	0	-0.497131	0.0802044	0.0407678	1.14437	-0.657982	0.719161	0.947459	1.5708	0	0	0.258545	-0.478952	-0.456857	1.33802	1.5708	0	0
15.01	2.91758	1.35218	-1.0697	0.641565	-0.393608	0.94946	0.0241515	-0.0535422	-0.140905	0.220023	-0.328196	0	0	-0.211783	-0.124099	-0.116564	0.321911	-0.160157	0	0	-0.497315	0.0806968	0.0420928	1.14486	-0.653885	0.721105	0.946722	1.5708	0	0	0.255464	-0.477551	-0.461949	1.32437	1.5708	0	0
15.02	2.89281	1.35223	-1.05086	0.641728	-0.397011	0.949828	0.0327275	-0.050312	-0.145953	0.244551	-0.324811	0	0	-0.202327	-0.12719	-0.122592	0.329131	-0.160723	0	0	-0.496155	0.0811252	0.0430495	1.14535	-0.649501	0.724158	0.945618	1.5708	0	0	0.252021	-0.476119	-0.467706	1.31111	1.5708	0	0
15.03	2.86987	1.352	-1.03378	0.641927	-0.400302	0.950129	0.0411675	-0.0473002	-0.149457	0.272739	-0.319453	0	0	-0.193386	-0.130066	-0.12803	0.336302	-0.161428	0	0	-0.495104	0.0814237	0.0436929	1.14556	-0.644896	0.727276	0.944879	1.5708	0	0	0.248341	-0.474797	-0.474011	1.29875	1.5708	0	0
15.04	2.84919	1.35113	-1.01891	0.642156	-0.403515	0.950392	0.0489695	-0.0441919	-0.15169	0.304665	-0.313734	0	0	-0.185459	-0.132789	-0.132536	0.343268	-0.161451	0	0	-0.494562	0.0818414	0.0440619	1.14589	-0.639837	0.730256	0.944157	1.5708	0	0	0.244538	-0.473905	-0.480053	1.28694	1.5708	0	0
15.05	2.83199	1.3494	-1.00726	0.6424	-0.406601	0.950621	0.0556065	-0.0413331	-0.152716	0.339542	-0.309365	0	0	-0.17892	-0.13541	-0.136154	0.350345	-0.160763	0	0	-0.494783	0.0821691	0.0442707	1.1461	-0.634877	0.732953	0.943857	1.5708	0	0	0.240567	-0.473602	-0.486363	1.27591	1.5708	0	0
15.06	2.81979	1.34643	-1.00073	0.642745	-0.409596	0.950843	0.0602127	-0.0384917	-0.151585	0.376022	-0.306347	0	0	-0.174398	-0.137815	-0.13906	0.357352	-0.159881	0	0	-0.496366	0.0821555	0.0447763	1.1465	-0.629933	0.735574	0.943632	1.5708	0	0	0.237003	-0.473553	-0.49282	1.26544	1.5708	0	0
15.07	2.8099	1.3431	-0.996593	0.643207	-0.412467	0.951002	0.0633199	-0.0353312	-0.147927	0.412778	-0.303853	0	0	-0.170762	-0.140177	-0.141985	0.3637	-0.158223	0	0	-0.498266	0.0817597	0.0455616	1.14665	-0.625194	0.737811	0.943683	1.5708	0	0	0.233662	-0.473601	-0.499411	1.25556	1.5708	0	0
15.08	2.80006	1.33994	-0.992539	0.643786	-0.415201	0.95107	0.0653246	-0.0316111	-0.141695	0.448836	-0.301865	0	0	-0.166972	-0.142877	-0.145426	0.370278	-0.156612	0	0	-0.49958	0.081296	0.0464566	1.14597	-0.620289	0.739351	0.944033	1.5708	0	0	0.230097	-0.474026	-0.505166	1.24618	1.5708	0	0
15.09	2.79073	1.33675	-0.988677	0.644441	-0.417825	0.951105	0.0664785	-0.0273069	-0.133063	0.485986	-0.299593	0	0	-0.16298	-0.145984	-0.149236	0.377705	-0.155495	0	0	-0.500639	0.0807566	0.0472939	1.14416	-0.615613	0.739941	0.945235	1.5708	0	0	0.226388	-0.47495	-0.510124	1.23737	1.5708	0	0
15.1	2.78345	1.33339	-0.986165	0.645149	-0.420357	0.951142	0.0663505	-0.022652	-0.122718	0.523856	-0.297654	0	0	-0.159066	-0.149204	-0.153004	0.385826	-0.154257	0	0	-0.501641	0.0801922	0.0476791	1.14137	-0.610772	0.739357	0.946873	1.5708	0	0	0.222827	-0.476017	-0.514832	1.22879	1.5708	0	0
15.11	2.77847	1.32971	-0.985163	0.645898	-0.422778	0.951201	0.0640665	-0.0176936	-0.112031	0.559309	-0.295852	0	0	-0.155874	-0.152347	-0.155655	0.393144	-0.152941	0	0	-0.502841	0.0796515	0.047657	1.13784	-0.60602	0.737683	0.948951	1.5708	0	0	0.219388	-0.477105	-0.519055	1.22081	1.5708	0	0
15.12	2.77433	1.32637	-0.984417	0.646674	-0.425081	0.95122	0.0608078	-0.0125964	-0.102109	0.593052	-0.293741	0	0	-0.152217	-0.155456	-0.158064	0.401109	-0.151884	0	0	-0.50348	0.0789436	0.0472281	1.13363	-0.601393	0.735268	0.951333	1.5708	0	0	0.215786	-0.478114	-0.523256	1.21346	1.5708	0	0
15.13	2.77062	1.32307	-0.983601	0.647458	-0.427344	0.951254	0.0569543	-0.00703153	-0.0929296	0.625951	-0.291998	0	0	-0.14825	-0.158652	-0.159929	0.409614	-0.150709	0	0	-0.504088	0.0782021	0.0465153	1.12895	-0.596749	0.732042	0.95377	1.5708	0	0	0.211973	-0.479161	-0.527849	1.20709	1.5708	0	0
15.14	2.76729	1.31902	-0.983655	0.648412	-0.429664	0.951409	0.051625	-8.71746e-05	-0.0820643	0.656338	-0.291513	0	0	-0.145053	-0.162281	-0.161893	0.417962	-0.149859	0	0	-0.505722	0.0775399	0.0465863	1.12437	-0.59221	0.728815	0.956672	1.5708	0	0	0.208321	-0.479981	-0.532989	1.20172	1.5708	0	0
15.15	2.76489	1.31556	-0.984548	0.649486	-0.431896	0.951571	0.0455055	0.00713822	-0.070503	0.68371	-0.291652	0	0	-0.141381	-0.165698	-0.164109	0.426567	-0.149332	0	0	-0.506959	0.0763899	0.0464683	1.11893	-0.587572	0.724612	0.960432	1.5708	0	0	0.20436	-0.481062	-0.537764	1.19715	1.5708	0	0
15.16	2.76374	1.31276	-0.986286	0.650626	-0.434032	0.951743	0.0381434	0.014301	-0.0591041	0.707566	-0.292483	0	0	-0.137297	-0.16871	-0.16585	0.434951	-0.149517	0	0	-0.50773	0.0745747	0.046123	1.11256	-0.583233	0.719179	0.964941	1.5708	0	0	0.20063	-0.481821	-0.543109	1.19307	1.5708	0	0
15.17	2.76351	1.31029	-0.988111	0.651747	-0.436143	0.951919	0.029129	0.0212792	-0.0493986	0.727585	-0.293746	0	0	-0.133034	-0.171406	-0.166145	0.442754	-0.150163	0	0	-0.508252	0.0725502	0.0454674	1.10583	-0.579542	0.71348	0.969799	1.5708	0	0	0.19728	-0.482351	-0.548563	1.18951	1.5708	0	0
15.18	2.76374	1.30786	-0.990203	0.652916	-0.438257	0.952066	0.0188555	0.0284032	-0.0406016	0.745006	-0.294452	0	0	-0.128607	-0.174204	-0.16659	0.451024	-0.150821	0	0	-0.508845	0.0706996	0.0447316	1.09918	-0.575396	0.706803	0.974543	1.5708	0	0	0.193723	-0.48285	-0.554003	1.18633	1.5708	0	0
15.19	2.76335	1.30601	-0.991854	0.654155	-0.440347	0.952167	0.00754111	0.0357889	-0.0308088	0.757344	-0.294597	0	0	-0.123812	-0.176684	-0.166852	0.458928	-0.15133	0	0	-0.508923	0.0687734	0.0441186	1.0923	-0.571181	0.699745	0.979788	1.5708	0	0	0.189841	-0.483164	-0.559536	1.18372	1.5708	0	0
